<?xml version="1.0" encoding="UTF-8"?>
<svg version="1.1" xmlns="http://www.w3.org/2000/svg" width="60" height="60">
<path d="M0 0 C3.26954202 0.56371414 4.82575883 1.49962266 7 4 C6.67 4.33 6.34 4.66 6 5 C6.99 5.33 7.98 5.66 9 6 C9.495 7.485 9.495 7.485 10 9 C9.67 9.33 9.34 9.66 9 10 C9.928125 10.144375 10.85625 10.28875 11.8125 10.4375 C15.42080989 12.20627936 15.65476446 12.70405703 16.9375 16.3125 C17.9172821 19.84427269 18.25604072 22.46024887 17 26 C15.68 26.33 14.36 26.66 13 27 C13 27.66 13 28.32 13 29 C13.99 29.33 14.98 29.66 16 30 C17.018809 34.38087871 17.28722291 37.04934224 15 41 C14.154375 41.639375 13.30875 42.27875 12.4375 42.9375 C9.7028428 44.84437449 9.7028428 44.84437449 9.1875 48.25 C9.0946875 49.61125 9.0946875 49.61125 9 51 C4.71702469 52.05619003 0.57014354 52.11702092 -3.8125 52.0625 C-4.50537109 52.05798828 -5.19824219 52.05347656 -5.91210938 52.04882812 C-7.60811068 52.03713156 -9.30406703 52.01919924 -11 52 C-11.33 52.66 -11.66 53.32 -12 54 C-13.65 53.01 -15.3 52.02 -17 51 C-16.505 48.03 -16.505 48.03 -16 45 C-14.02 45 -12.04 45 -10 45 C-12.61485994 39.44342263 -14.88972717 36.9987683 -20.390625 34.23828125 C-20.92171875 33.82964844 -21.4528125 33.42101563 -22 33 C-22 31.68 -22 30.36 -22 29 C-21.34 28.67 -20.68 28.34 -20 28 C-20.66 27.401875 -21.32 26.80375 -22 26.1875 C-24 24 -24 24 -24 21 C-22.35 21 -20.7 21 -19 21 C-19.99 20.67 -20.98 20.34 -22 20 C-22 19.01 -22 18.02 -22 17 C-21.34 17 -20.68 17 -20 17 C-20.2475 15.9171875 -20.2475 15.9171875 -20.5 14.8125 C-20 12 -20 12 -18.32421875 10.625 C-16.24736892 9.34927506 -14.13991402 8.16610993 -12 7 C-11.01 6.34 -10.02 5.68 -9 5 C-6.73828125 4.3671875 -6.73828125 4.3671875 -4.3125 3.875 C-3.50425781 3.70742187 -2.69601563 3.53984375 -1.86328125 3.3671875 C-1.24839844 3.24601563 -0.63351563 3.12484375 0 3 C0 2.01 0 1.02 0 0 Z M-7 8 C-6.67 9.32 -6.34 10.64 -6 12 C-7.65 12 -9.3 12 -11 12 C-12.01111093 15.04913228 -12.01111093 15.04913228 -11 18 C-7.39158074 16.59755081 -7.39158074 16.59755081 -4 14.75 C-2 14 -2 14 0.75 14.875 C1.4925 15.24625 2.235 15.6175 3 16 C2.67 14.35 2.34 12.7 2 11 C2.99 10.34 3.98 9.68 5 9 C4.34 8.34 3.68 7.68 3 7 C2.34 7 1.68 7 1 7 C0.67 6.34 0.34 5.68 0 5 C-2.89508511 5 -4.59696473 6.48229352 -7 8 Z M-6 30 C-6 30.99 -6 31.98 -6 33 C-5.01 32.67 -4.02 32.34 -3 32 C-3.33 31.34 -3.66 30.68 -4 30 C-4.66 30 -5.32 30 -6 30 Z M1 32 C0.67 32.66 0.34 33.32 0 34 C0.99 33.67 1.98 33.34 3 33 C2.34 32.67 1.68 32.34 1 32 Z M5 47 C4.34 47.66 3.68 48.32 3 49 C4.32 48.67 5.64 48.34 7 48 C6.34 47.67 5.68 47.34 5 47 Z " fill="#54C5E5" transform="translate(33,2)"/>
<path d="M0 0 C0.33 1.65 0.66 3.3 1 5 C-0.65 5.33 -2.3 5.66 -4 6 C-4 7.65 -4 9.3 -4 11 C-3.48050781 10.61585937 -2.96101563 10.23171875 -2.42578125 9.8359375 C-0.32095132 8.3808425 1.6772122 7.07767049 4 6 C7 6.6875 7 6.6875 9 8 C8.67 6.68 8.34 5.36 8 4 C11.04838441 3.07434903 13.46489969 2.95844194 16.625 3.3125 C17.40101562 3.39113281 18.17703125 3.46976563 18.9765625 3.55078125 C21 4 21 4 23 6 C24.47733783 10.74303197 25.52024878 14.13520389 24 19 C22.68 19.33 21.36 19.66 20 20 C20 20.66 20 21.32 20 22 C20.99 22.33 21.98 22.66 23 23 C23.8125 25.6875 23.8125 25.6875 24 29 C21.5625 31.875 21.5625 31.875 19 34 C18.773125 33.236875 18.54625 32.47375 18.3125 31.6875 C16.13972372 27.23848191 12.43023179 26.06580406 8 24.375 C2.13916201 22.48088823 -3.88389362 22.27413769 -10 22 C-10.33 20.35 -10.66 18.7 -11 17 C-9.68 16.34 -8.36 15.68 -7 15 C-8.32 14.34 -9.64 13.68 -11 13 C-10.72387317 9.04218214 -10.25946652 7.30043492 -7.625 4.25 C-2.66666667 0 -2.66666667 0 0 0 Z " fill="#E2A860" transform="translate(26,9)"/>
<path d="M0 0 C3.26954202 0.56371414 4.82575883 1.49962266 7 4 C6.67 4.33 6.34 4.66 6 5 C6.99 5.33 7.98 5.66 9 6 C9.495 7.485 9.495 7.485 10 9 C6.6868604 10.04127245 5.39801692 10.18574123 2.1875 8.6875 C1.465625 8.130625 0.74375 7.57375 0 7 C0 6.34 0 5.68 0 5 C-0.70125 5.474375 -1.4025 5.94875 -2.125 6.4375 C-5 8 -5 8 -8 8.375 C-12.03885789 9.21642873 -13.49117556 10.77436858 -16 14 C-16.87989974 17.18150892 -16.87989974 17.18150892 -17 20 C-15.35 20.33 -13.7 20.66 -12 21 C-13.3125 22.5 -13.3125 22.5 -15 24 C-15.99 24 -16.98 24 -18 24 C-17.67 25.32 -17.34 26.64 -17 28 C-13.77193175 28.62986698 -10.86006727 28.99745577 -7.5625 28.9375 C-3.60501051 29.00692964 -0.73983096 29.77883071 3 31 C2.34 31.66 1.68 32.32 1 33 C1 33.99 1 34.98 1 36 C0.40832031 35.91621094 -0.18335937 35.83242188 -0.79296875 35.74609375 C-6.94927962 34.89091776 -6.94927962 34.89091776 -13 36 C-13.33 36.66 -13.66 37.32 -14 38 C-15.34345985 37.26829419 -16.67460584 36.51394247 -18 35.75 C-19.11375 35.12351562 -19.11375 35.12351562 -20.25 34.484375 C-20.8275 33.99453125 -21.405 33.5046875 -22 33 C-22 31.68 -22 30.36 -22 29 C-21.34 28.67 -20.68 28.34 -20 28 C-20.66 27.401875 -21.32 26.80375 -22 26.1875 C-24 24 -24 24 -24 21 C-22.35 21 -20.7 21 -19 21 C-19.99 20.67 -20.98 20.34 -22 20 C-22 19.01 -22 18.02 -22 17 C-21.34 17 -20.68 17 -20 17 C-20.2475 15.9171875 -20.2475 15.9171875 -20.5 14.8125 C-20 12 -20 12 -18.32421875 10.625 C-16.24736892 9.34927506 -14.13991402 8.16610993 -12 7 C-11.01 6.34 -10.02 5.68 -9 5 C-6.73828125 4.3671875 -6.73828125 4.3671875 -4.3125 3.875 C-3.50425781 3.70742187 -2.69601563 3.53984375 -1.86328125 3.3671875 C-1.24839844 3.24601563 -0.63351563 3.12484375 0 3 C0 2.01 0 1.02 0 0 Z M-6 30 C-6 30.99 -6 31.98 -6 33 C-5.01 32.67 -4.02 32.34 -3 32 C-3.33 31.34 -3.66 30.68 -4 30 C-4.66 30 -5.32 30 -6 30 Z " fill="#E7F6F4" transform="translate(33,2)"/>
<path d="M0 0 C0.66 0.495 1.32 0.99 2 1.5 C5.96633241 3.48316621 8.60303262 3.22357461 13 3 C13 4.32 13 5.64 13 7 C12.34 7 11.68 7 11 7 C11 6.01 11 5.02 11 4 C9.02 4.99 9.02 4.99 7 6 C7.495 6.45375 7.99 6.9075 8.5 7.375 C10 9 10 9 10 11 C10.99 11.33 11.98 11.66 13 12 C13.8125 14.6875 13.8125 14.6875 14 18 C11.5625 20.875 11.5625 20.875 9 23 C8.773125 22.236875 8.54625 21.47375 8.3125 20.6875 C5.62652837 15.18765332 -0.5631774 13.93514025 -6 12 C-6 9.69 -6 7.38 -6 5 C-3.69 5.33 -1.38 5.66 1 6 C0.67 4.02 0.34 2.04 0 0 Z " fill="#C37290" transform="translate(36,20)"/>
<path d="M0 0 C1.95901454 0.11382653 3.9172338 0.24141125 5.875 0.375 C6.96554688 0.44460938 8.05609375 0.51421875 9.1796875 0.5859375 C12 1 12 1 14 3 C15.47733783 7.74303197 16.52024878 11.13520389 15 16 C11.95613276 16.08226668 9.92824652 15.97608217 7 15 C7.33 14.01 7.66 13.02 8 12 C9.32 12 10.64 12 12 12 C12 12.99 12 13.98 12 15 C12.66 15 13.32 15 14 15 C14 13.68 14 12.36 14 11 C13.12988281 11.19529297 13.12988281 11.19529297 12.2421875 11.39453125 C5.937722 12.50769595 5.937722 12.50769595 3.06640625 10.953125 C1.4375 9.5625 1.4375 9.5625 -1 7 C-0.7525 6.1028125 -0.7525 6.1028125 -0.5 5.1875 C0.1114124 2.88655664 0.1114124 2.88655664 0 0 Z " fill="#8BCDE1" transform="translate(35,12)"/>
<path d="M0 0 C3.26954202 0.56371414 4.82575883 1.49962266 7 4 C6.67 4.33 6.34 4.66 6 5 C6.99 5.33 7.98 5.66 9 6 C9.33 6.99 9.66 7.98 10 9 C6.6868604 10.04127245 5.39801692 10.18574123 2.1875 8.6875 C1.465625 8.130625 0.74375 7.57375 0 7 C0 6.34 0 5.68 0 5 C-0.70125 5.474375 -1.4025 5.94875 -2.125 6.4375 C-5 8 -5 8 -8 8.375 C-12.03885789 9.21642873 -13.49117556 10.77436858 -16 14 C-16.87989974 17.18150892 -16.87989974 17.18150892 -17 20 C-15.35 20.33 -13.7 20.66 -12 21 C-12 21.33 -12 21.66 -12 22 C-15.94727588 22.17942163 -18.5980513 22.09350689 -22 20 C-22 19.01 -22 18.02 -22 17 C-21.34 17 -20.68 17 -20 17 C-20.2475 15.9171875 -20.2475 15.9171875 -20.5 14.8125 C-20 12 -20 12 -18.32421875 10.625 C-16.24736892 9.34927506 -14.13991402 8.16610993 -12 7 C-11.01 6.34 -10.02 5.68 -9 5 C-6.73828125 4.3671875 -6.73828125 4.3671875 -4.3125 3.875 C-3.50425781 3.70742187 -2.69601563 3.53984375 -1.86328125 3.3671875 C-1.24839844 3.24601563 -0.63351563 3.12484375 0 3 C0 2.01 0 1.02 0 0 Z " fill="#F3E8D1" transform="translate(33,2)"/>
<path d="M0 0 C0 0.66 0 1.32 0 2 C0.515625 1.835 1.03125 1.67 1.5625 1.5 C4.73363876 0.84951 7.77218334 0.9379266 11 1 C8.21824757 4.09083603 6.07501963 6.00388409 2 7 C-1.03495018 6.86204772 -4.00210319 6.48332105 -7 6 C-7 4.02 -7 2.04 -7 0 C-4.3333581 -1.33332095 -2.83319697 -0.67102033 0 0 Z " fill="#3986BD" transform="translate(31,44)"/>
<path d="M0 0 C2 1.0625 2 1.0625 4 3 C4.25 6.6875 4.25 6.6875 4 10 C5.65 10 7.3 10 9 10 C8.67 10.99 8.34 11.98 8 13 C7.030625 13.12375 6.06125 13.2475 5.0625 13.375 C4.051875 13.58125 3.04125 13.7875 2 14 C1.67 14.66 1.34 15.32 1 16 C-0.65 15.01 -2.3 14.02 -4 13 C-3.67 11.02 -3.34 9.04 -3 7 C-1.02 7 0.96 7 3 7 C2.505 6.21625 2.01 5.4325 1.5 4.625 C0 2 0 2 0 0 Z " fill="#A4C3DB" transform="translate(20,40)"/>
<path d="M0 0 C0.8971875 0.433125 0.8971875 0.433125 1.8125 0.875 C2.1425 1.865 2.4725 2.855 2.8125 3.875 C3.4725 3.875 4.1325 3.875 4.8125 3.875 C5.1425 5.855 5.4725 7.835 5.8125 9.875 C4.39568366 9.56317931 2.97905349 9.25051263 1.5625 8.9375 C0.37914062 8.67646484 0.37914062 8.67646484 -0.828125 8.41015625 C-2.95628703 7.927444 -5.07282842 7.41336822 -7.1875 6.875 C-6.81242618 4.15571483 -6.34531339 3.03281339 -4.375 1.0625 C-2.1875 -0.125 -2.1875 -0.125 0 0 Z " fill="#85B338" transform="translate(31.1875,15.125)"/>
<path d="M0 0 C0.66 0.99 1.32 1.98 2 3 C2.99 2.34 3.98 1.68 5 1 C3.94437362 3.55109708 3.27023483 4.81984345 0.9375 6.375 C-1.74708937 8.62659108 -1.6985694 10.60890571 -2 14 C-5.83724172 14.90413673 -9.37502274 15.10576898 -13.3125 15.0625 C-14.38113281 15.05347656 -15.44976563 15.04445313 -16.55078125 15.03515625 C-17.35902344 15.02355469 -18.16726562 15.01195312 -19 15 C-15.39252376 12.06057491 -11.76913001 10.64724268 -7.4375 9.0625 C-4.92673806 7.96806531 -3.04468508 6.81903289 -1 5 C-0.1957792 2.40144267 -0.1957792 2.40144267 0 0 Z M-6 10 C-6.66 10.66 -7.32 11.32 -8 12 C-6.68 11.67 -5.36 11.34 -4 11 C-4.66 10.67 -5.32 10.34 -6 10 Z " fill="#D4EAF3" transform="translate(44,39)"/>
<path d="M0 0 C2.39692342 3.83507747 2.63714778 7.57320287 3 12 C2 13 2 13 -0.375 13.125 C-3 13 -3 13 -6 12 C-5.67 11.01 -5.34 10.02 -5 9 C-3.68 9 -2.36 9 -1 9 C-1 9.99 -1 10.98 -1 12 C-0.34 12 0.32 12 1 12 C1 10.68 1 9.36 1 8 C0.38511719 8.11859375 -0.22976562 8.2371875 -0.86328125 8.359375 C-2.07564453 8.55273438 -2.07564453 8.55273438 -3.3125 8.75 C-4.11300781 8.88921875 -4.91351563 9.0284375 -5.73828125 9.171875 C-6.48464844 9.11515625 -7.23101562 9.0584375 -8 9 C-8.99 7.68 -9.98 6.36 -11 5 C-7.37 5 -3.74 5 0 5 C0 3.35 0 1.7 0 0 Z " fill="#E0DAE3" transform="translate(48,15)"/>
<path d="M0 0 C0.66386719 0.08378906 1.32773437 0.16757812 2.01171875 0.25390625 C8.54720848 1.05425042 8.54720848 1.05425042 15 0 C15 1.98 15 3.96 15 6 C9.47322267 6.19392201 5.24385089 5.7479503 0 4 C0 2.68 0 1.36 0 0 Z " fill="#89BDD8" transform="translate(15,26)"/>
<path d="M0 0 C3.26954202 0.56371414 4.82575883 1.49962266 7 4 C6.67 4.33 6.34 4.66 6 5 C6.99 5.33 7.98 5.66 9 6 C9.33 6.99 9.66 7.98 10 9 C6.6868604 10.04127245 5.39801692 10.18574123 2.1875 8.6875 C1.465625 8.130625 0.74375 7.57375 0 7 C0 6.34 0 5.68 0 5 C-0.99 5.33 -1.98 5.66 -3 6 C-3.33 5.34 -3.66 4.68 -4 4 C-2.68 3.67 -1.36 3.34 0 3 C0 2.01 0 1.02 0 0 Z " fill="#B4D0E1" transform="translate(33,2)"/>
<path d="M0 0 C5.75 1.625 5.75 1.625 8 5 C8.1875 7.625 8.1875 7.625 8 10 C7 11 7 11 3.9375 11.0625 C2.968125 11.041875 1.99875 11.02125 1 11 C1 10.01 1 9.02 1 8 C-1.31 8.33 -3.62 8.66 -6 9 C-6 8.34 -6 7.68 -6 7 C-3.36 7 -0.72 7 2 7 C2.33 6.01 2.66 5.02 3 4 C3.33 4.33 3.66 4.66 4 5 C4.33 4.34 4.66 3.68 5 3 C2.03 2.505 2.03 2.505 -1 2 C-0.67 1.34 -0.34 0.68 0 0 Z " fill="#94C5D4" transform="translate(36,34)"/>
<path d="M0 0 C1.45922693 0.11409593 2.91740598 0.24165544 4.375 0.375 C5.59316406 0.47941406 5.59316406 0.47941406 6.8359375 0.5859375 C9 1 9 1 11 3 C9.4375 5.0625 9.4375 5.0625 7 7 C3.37542227 6.80923275 0.43470709 6.14490236 -3 5 C-2.67 4.01 -2.34 3.02 -2 2 C-0.35 2 1.3 2 3 2 C2.01 1.34 1.02 0.68 0 0 Z " fill="#CE575D" transform="translate(33,27)"/>
<path d="M0 0 C2.46928572 -0.06859127 4.61113993 -0.1093669 7 0.5625 C9.55099822 1.12053086 11.4687288 0.5328992 14 0 C14.66 0.33 15.32 0.66 16 1 C15.67 1.99 15.34 2.98 15 4 C14.67 3.67 14.34 3.34 14 3 C13.67 3.66 13.34 4.32 13 5 C10.36 5 7.72 5 5 5 C5 4.34 5 3.68 5 3 C3.02 3 1.04 3 -1 3 C-0.67 2.01 -0.34 1.02 0 0 Z " fill="#64B694" transform="translate(25,36)"/>
<path d="M0 0 C5.445 1.485 5.445 1.485 11 3 C7.68756695 3.82810826 5.34023421 4.09278428 2 4 C1.67 4.66 1.34 5.32 1 6 C-2.04200046 6 -4.99532806 5.44513658 -8 5 C-7.67 4.01 -7.34 3.02 -7 2 C-4.69 2 -2.38 2 0 2 C0 1.34 0 0.68 0 0 Z " fill="#BFB795" transform="translate(26,22)"/>
<path d="M0 0 C0.33 1.65 0.66 3.3 1 5 C-0.65 5.33 -2.3 5.66 -4 6 C-4 7.65 -4 9.3 -4 11 C-5.32 10.34 -6.64 9.68 -8 9 C-7.67 8.01 -7.34 7.02 -7 6 C-7.66 5.67 -8.32 5.34 -9 5 C-7.87926138 4.16094435 -6.75325453 3.32892169 -5.625 2.5 C-4.99851562 2.0359375 -4.37203125 1.571875 -3.7265625 1.09375 C-2 0 -2 0 0 0 Z " fill="#E8C398" transform="translate(26,9)"/>
<path d="M0 0 C2.475 0.495 2.475 0.495 5 1 C5 1.66 5 2.32 5 3 C5.515625 2.835 6.03125 2.67 6.5625 2.5 C9.73363876 1.84951 12.77218334 1.9379266 16 2 C14.68 3.32 13.36 4.64 12 6 C11.01 5.67 10.02 5.34 9 5 C7.43881572 4.93259135 5.8749748 4.91485544 4.3125 4.9375 C3.50425781 4.94652344 2.69601563 4.95554687 1.86328125 4.96484375 C1.24839844 4.97644531 0.63351563 4.98804688 0 5 C0 3.35 0 1.7 0 0 Z " fill="#3598D6" transform="translate(26,43)"/>
<path d="M0 0 C2.31 0 4.62 0 7 0 C7 1.32 7 2.64 7 4 C7.66 4.33 8.32 4.66 9 5 C7.68 5 6.36 5 5 5 C4.67 5.66 4.34 6.32 4 7 C2.68 6.34 1.36 5.68 0 5 C0 3.35 0 1.7 0 0 Z " fill="#BEE8DC" transform="translate(15,33)"/>
<path d="M0 0 C2.97 0.495 2.97 0.495 6 1 C5.34 2.32 4.68 3.64 4 5 C4.99 5.66 5.98 6.32 7 7 C6.34 7 5.68 7 5 7 C4.67 7.66 4.34 8.32 4 9 C2.35 8.01 0.7 7.02 -1 6 C-0.67 4.02 -0.34 2.04 0 0 Z " fill="#869BB9" transform="translate(17,47)"/>
<path d="M0 0 C3.3 0.33 6.6 0.66 10 1 C9.67 1.66 9.34 2.32 9 3 C8.01 3 7.02 3 6 3 C6 4.32 6 5.64 6 7 C3.53199953 5.84826645 1.95216435 4.95216435 0 3 C0 2.01 0 1.02 0 0 Z " fill="#CAE8E6" transform="translate(9,23)"/>
<path d="M0 0 C3.63 0 7.26 0 11 0 C11 1.98 11 3.96 11 6 C8.97954558 5.39816251 6.97888961 4.72693904 5 4 C4.67 3.34 4.34 2.68 4 2 C2.68 2.33 1.36 2.66 0 3 C0 2.01 0 1.02 0 0 Z " fill="#978DC0" transform="translate(37,14)"/>
<path d="M0 0 C2.31 0.33 4.62 0.66 7 1 C6.34 1.66 5.68 2.32 5 3 C5 3.99 5 4.98 5 6 C1.7 5.67 -1.6 5.34 -5 5 C-5 3.68 -5 2.36 -5 1 C-2.525 1.495 -2.525 1.495 0 2 C0 1.34 0 0.68 0 0 Z " fill="#D8E3C7" transform="translate(29,32)"/>
<path d="M0 0 C0.66 0.495 1.32 0.99 2 1.5 C5.96633241 3.48316621 8.60303262 3.22357461 13 3 C13 4.32 13 5.64 13 7 C12.34 7 11.68 7 11 7 C11 6.01 11 5.02 11 4 C9.02463255 4.34786708 9.02463255 4.34786708 7 5 C6.67 5.66 6.34 6.32 6 7 C4.35 6.67 2.7 6.34 1 6 C0.67 4.02 0.34 2.04 0 0 Z " fill="#837F6B" transform="translate(36,20)"/>
<path d="M0 0 C0.66 0.99 1.32 1.98 2 3 C2.99 2.34 3.98 1.68 5 1 C3.92730209 3.59235327 3.16833074 4.8762274 0.875 6.5625 C-0.053125 7.2740625 -0.053125 7.2740625 -1 8 C-1 8.99 -1 9.98 -1 11 C-2.65 10.67 -4.3 10.34 -6 10 C-5.195625 9.278125 -4.39125 8.55625 -3.5625 7.8125 C-0.97707928 4.97484311 -0.31957187 3.72833853 0 0 Z " fill="#D2D4E5" transform="translate(44,39)"/>
<path d="M0 0 C0.66 0.33 1.32 0.66 2 1 C2 2.32 2 3.64 2 5 C2.99 5.33 3.98 5.66 5 6 C5 6.33 5 6.66 5 7 C3.02 7 1.04 7 -1 7 C-1 6.01 -1 5.02 -1 4 C-3.31 4.33 -5.62 4.66 -8 5 C-8 4.34 -8 3.68 -8 3 C-5.36 3 -2.72 3 0 3 C0 2.01 0 1.02 0 0 Z " fill="#82D9EC" transform="translate(38,38)"/>
<path d="M0 0 C3.96 0.33 7.92 0.66 12 1 C12 1.33 12 1.66 12 2 C8.7 2 5.4 2 2 2 C2 3.98 2 5.96 2 8 C1.01 7.67 0.02 7.34 -1 7 C-0.7525 6.1028125 -0.7525 6.1028125 -0.5 5.1875 C0.1114124 2.88655664 0.1114124 2.88655664 0 0 Z " fill="#E5ECF3" transform="translate(35,12)"/>
<path d="M0 0 C-0.33 0.66 -0.66 1.32 -1 2 C-1.66 1.67 -2.32 1.34 -3 1 C-2.67 1.99 -2.34 2.98 -2 4 C-1.34 4.33 -0.68 4.66 0 5 C-0.66 6.32 -1.32 7.64 -2 9 C-2.268125 8.4225 -2.53625 7.845 -2.8125 7.25 C-4.01719859 4.9674132 -5.40798115 3.0262058 -7 1 C-4 0 -4 0 0 0 Z " fill="#89416D" transform="translate(48,34)"/>
<path d="M0 0 C0.928125 0.20625 1.85625 0.4125 2.8125 0.625 C2.4825 1.615 2.1525 2.605 1.8125 3.625 C-0.52083333 3.625 -2.85416667 3.625 -5.1875 3.625 C-5.5175 2.965 -5.8475 2.305 -6.1875 1.625 C-3.1875 -0.375 -3.1875 -0.375 0 0 Z " fill="#6CAF6B" transform="translate(38.1875,36.375)"/>
<path d="M0 0 C2.31 0.33 4.62 0.66 7 1 C7 2.33333333 7 3.66666667 7 5 C4.69 5 2.38 5 0 5 C0 3.35 0 1.7 0 0 Z " fill="#E38171" transform="translate(30,25)"/>
<path d="M0 0 C0.33 1.65 0.66 3.3 1 5 C-4.75 4.25 -4.75 4.25 -7 2 C-4.35261084 0.5393715 -3.10551666 0 0 0 Z " fill="#649730" transform="translate(36,20)"/>
<path d="M0 0 C1.65 0 3.3 0 5 0 C5.66 1.32 6.32 2.64 7 4 C5.35 4.33 3.7 4.66 2 5 C1.34 3.35 0.68 1.7 0 0 Z " fill="#E9D9C6" transform="translate(36,7)"/>
<path d="M0 0 C1.32 0 2.64 0 4 0 C4 1.98 4 3.96 4 6 C2.68 5.67 1.36 5.34 0 5 C-0.5625 3.0625 -0.5625 3.0625 -1 1 C-0.67 0.67 -0.34 0.34 0 0 Z " fill="#7C86A0" transform="translate(26,26)"/>
<path d="M0 0 C2.97 0.495 2.97 0.495 6 1 C5.01 2.485 5.01 2.485 4 4 C1.375 4.1875 1.375 4.1875 -1 4 C-0.67 2.68 -0.34 1.36 0 0 Z " fill="#8E586C" transform="translate(17,47)"/>
<path d="M0 0 C1.32 0 2.64 0 4 0 C4 0.99 4 1.98 4 3 C2.02 3.33 0.04 3.66 -2 4 C-1.34 2.68 -0.68 1.36 0 0 Z " fill="#49B3DC" transform="translate(33,42)"/>
<path d="M0 0 C0.66 0.33 1.32 0.66 2 1 C1.67 2.65 1.34 4.3 1 6 C-0.32 5.34 -1.64 4.68 -3 4 C-3 3.01 -3 2.02 -3 1 C-2.01 0.67 -1.02 0.34 0 0 Z " fill="#AC6379" transform="translate(48,34)"/>
<path d="M0 0 C1.98 0 3.96 0 6 0 C6 0.99 6 1.98 6 3 C6.66 3.33 7.32 3.66 8 4 C5.36 3.67 2.72 3.34 0 3 C0 2.01 0 1.02 0 0 Z " fill="#AAE8D7" transform="translate(16,34)"/>
<path d="M0 0 C1.98 0.495 1.98 0.495 4 1 C4 1.99 4 2.98 4 4 C2.35 4.33 0.7 4.66 -1 5 C-0.67 3.35 -0.34 1.7 0 0 Z " fill="#BE3455" transform="translate(38,29)"/>
<path d="M0 0 C2.475 0.495 2.475 0.495 5 1 C4.67 2.32 4.34 3.64 4 5 C2.68 4.67 1.36 4.34 0 4 C0 2.68 0 1.36 0 0 Z " fill="#7CBCAF" transform="translate(15,26)"/>
<path d="M0 0 C0 0.99 0 1.98 0 3 C-2.31 3.33 -4.62 3.66 -7 4 C-7.33 3.34 -7.66 2.68 -8 2 C-2.25 0 -2.25 0 0 0 Z " fill="#E6F3F5" transform="translate(42,50)"/>
<path d="M0 0 C2.31 0 4.62 0 7 0 C5.68 1.32 4.36 2.64 3 4 C2.01 3.67 1.02 3.34 0 3 C0 2.01 0 1.02 0 0 Z " fill="#479DCB" transform="translate(35,45)"/>
<path d="M0 0 C0.33 0.66 0.66 1.32 1 2 C2.32 1.67 3.64 1.34 5 1 C5 2.98 5 4.96 5 7 C2.5 5.1875 2.5 5.1875 0 3 C0 2.01 0 1.02 0 0 Z " fill="#E1F5F7" transform="translate(9,23)"/>
<path d="M0 0 C1.32 0 2.64 0 4 0 C4.33 0.99 4.66 1.98 5 3 C6.65 3.33 8.3 3.66 10 4 C10 4.33 10 4.66 10 5 C6.05272412 5.17942163 3.4019487 5.09350689 0 3 C0 2.01 0 1.02 0 0 Z " fill="#EEE1CA" transform="translate(11,19)"/>
<path d="M0 0 C0.33 1.32 0.66 2.64 1 4 C-2.75 7 -2.75 7 -5 7 C-4.60196439 4.11424181 -4.20990931 3.17810487 -1.9375 1.25 C-1.298125 0.8375 -0.65875 0.425 0 0 Z " fill="#AFCA52" transform="translate(29,15)"/>
<path d="M0 0 C0.99 0.33 1.98 0.66 3 1 C2.67 2.32 2.34 3.64 2 5 C1.01 5 0.02 5 -1 5 C-0.67 3.35 -0.34 1.7 0 0 Z " fill="#F1E1AF" transform="translate(29,9)"/>
<path d="M0 0 C0.99 0.33 1.98 0.66 3 1 C2.67 1.99 2.34 2.98 2 4 C1.01 4 0.02 4 -1 4 C-0.67 2.68 -0.34 1.36 0 0 Z " fill="#EEE5E9" transform="translate(51,27)"/>
<path d="M0 0 C2 1 2 1 2 1 Z " fill="#FFFFFF" transform="translate(16,55)"/>
</svg>
